<?xml version="1.0" encoding="UTF-8"?>
<svg id="_图层_1" data-name="图层 1" xmlns="http://www.w3.org/2000/svg" viewBox="0 0 3884.33 2192.67">
  <defs>
    <style>
      .cls-1 {
        fill: #fff;
      }

      .cls-2 {
        fill: none;
        stroke: #fff;
        stroke-miterlimit: 10;
        stroke-width: 16px;
      }
    </style>
  </defs>
  <path class="cls-1" d="M895.82,987.66c-5.73,1.2-12.21,1.97-18.14,1.92,0,0-9.33,0-9.33,0,1.27-9.06,3.4-19.45,3.27-28.41-.08-4.46-2.83-4.88-6.72-5.39-28.48-2.94-61.95-1.49-90.8-1.59,0,0,7.71-6.06,7.71-6.06l-26.85,107.67-7.76-9.94h50.07c7.73-.07,15.68-.05,23.14-1.56.82-.2,1.63-.39,2.28-.71.37-.23.94-1.03,1.6-2.4,2.23-4.65,2.95-11.41,3.93-16.57,8.89,0,22.14,0,31.03,0-7.31,26.56-13.05,53.69-17.57,80.94-8.08,0-19.99,0-28.08,0,.62-6.6,1.69-14.79,1.97-21.26.1-1.5.11-3.08.14-4.56.02.24.01.6.1.78.08.21-.07-.19-.39-.64-.2-.35-.65-.85-.93-1.21,0,0-.18-.22-.18-.22-.06-.07.01.02.04.04,0,0,.1.1.1.1.5.46.48.31.11.2-6.44-1.57-12.97-1.41-19.7-1.56,0,0-51.52,0-51.52,0,0,0,7.74-5.98,7.74-5.98-11.95,44.88-25.11,89.44-45.57,131.5,0,0-9.57-11.19-9.57-11.19,13.53-4.25,28.18-7.51,42.83-7.53,27.36.14,54.42,5.19,80.98,11.12,5.53,1.16,11.12,2.26,16.38,2.91,5.35.71,11.23.58,15.82-2.22,2.43-1.62,5.18-4.2,5.01-6.98-.3-3.06-1.83-7.09-2.95-10.15-1.71-5.22-2.82-10.82-2.27-16.35,1.3-11.23,12.05-20.05,23.19-19.83,8.54-.22,16.88,4.78,21.18,12.1,7.29,12.45,4.89,28.93-1.37,41.2-4.63,8.86-11.58,16.21-19.56,22.05-13.03,9.55-29.43,13.64-45.28,14.07-36.26.07-69.16-6.67-104.4-7.94-34.27-1.75-68.34,1.25-102.47,5.26,0,0-11.94,1.44-11.94,1.44,1.72-6.16,5.4-18.98,7.14-25.2,0,0,1.23-4.33,1.23-4.33,11.76-3.4,23.96-6.27,35.06-11.23,4.8-2.68,7.08-8.81,9.36-13.67,23-55.38,48.89-174.42,65.25-233.49,0,0,7.76,9.93,7.76,9.93-19.77.35-38.91,6.19-55.62,16.57-21.48,12.95-38.94,34.43-43.23,59.45-1.41,8.65-1.3,18.31.73,26.87,1.57,5.92,4.35,11.27,7.17,16.83,1.14,2.26,2.66,4.85,3.79,7.1,2.91,5.83,5.29,12.58,4.45,19.45-1.21,10.14-8.83,18.46-18.27,21.72-14.56,4.9-29.1-1.74-36.3-14.92-10.59-18.67-11.37-40.37-9.56-60.98,3.17-33.26,19.7-64.31,42.7-88.01,11.05-11.48,24.36-21.01,38.69-27.88,20.09-9.86,42.57-14.84,64.4-16.91,11.57-1.08,29.08-1.21,40.85-1.46,13.85-.25,49.83-1,63.25-1.25,16.45-.44,33.09-1.16,49.1-4.13,6.27-1.27,46.27-12.14,53.09-13.94-13.4,27.53-30.33,60.44-42.28,88.21,0,0-.36.85-.36.85,0,0-.18.42-.18.42-.56,2.51-1.98,5.25-3.57,6.95h0ZM885.42,975.5c-1.34.2-2.43,1.34-2.83,2.38,0,0-.02-.49-.02-.49l-.04-.98c-.38-8.74-.41-18.32-.44-27.04,0-10.24.12-20.44.29-30.63,0,0,26.25,25.5,26.25,25.5-22.61,5.36-45.66,5.3-68.54,5.1-13.3-.25-49.54-.97-63.33-1.24-10.62-.18-27.8-.75-38.24-.19-19.93,1.16-39.27,4.73-57.01,13.41-11,5.27-20.98,12.56-29.4,21.34-22.26,22.36-35.88,52.53-34.93,84.31.23,8.99,1.28,17.3,4.96,24.98.85,1.6,1.85,3.7,3.35,4.52.23.11.57.22,1.17.25.66.03,1.09-.03,1.39-.09.61-.09,1.21-.59,1.64-1.03.08-.09.01.15.05.23.01.03.04.05.04-.09,0-.15-.02-.45-.09-.84-.24-1.66-1.34-4.12-2.14-5.85-3.55-7.18-6.99-14.36-9.53-22.1-6.38-21.27-3.28-45,6.44-64.73,20.42-41.32,67.05-66.49,112.48-65.52,0,0,10.27.2,10.27.2l-2.51,9.72c-13.82,51.38-41.63,169.5-59.09,218.09-2.93,8.26-6.23,16.79-10.24,24.76-2.94,5.79-7.36,11.54-13.48,14.68-10.85,5.1-22.44,7.92-33.8,11.23,0,0,5.57-5.53,5.57-5.53,0,0-3.86,13.64-3.86,13.64l-8.66-10.12c23.13-2.79,46.4-4.92,69.86-5.66,23.43-.91,47.01.75,70.28,2.93,22.57,1.95,45.49,5.68,68.16,5.3,10.41-.32,20.85-2.3,30-7.1,12.73-6.76,23.98-19.03,25-33.91.43-4.9-.2-9.15-1.96-11.99-2.16-3.97-7.52-5.81-11.47-3.36-1.01.63-2.42,2.04-2.91,3.12-1.12,1.82-.12,6.65.55,9.14.56,1.97,1.35,3.89,1.98,5.78,1.45,4.42,2.85,9.18,2.15,14.21-1.32,9.51-9.01,16.86-17.63,20.18-6.87,2.6-13.88,2.8-20.92,1.91-8.87-1.04-17.76-3.18-26.32-5.01-19.37-4.15-38.99-7.54-58.71-8.61-4.11-.19-8.29-.34-12.4-.27-17.63.28-36.9,6.99-53.87,12.38,0,0,8.26-16.8,8.26-16.8,20.66-42.48,33.97-88.67,45.99-134.41,2.04.02,54.24,0,57.77,0,6.7.07,13.87.19,20.62,1.38,3.92.77,7.15,1.62,10.49,4.97,2.31,2.69,3.88,4.65,5.12,8.48.34,1.17.55,2.57.54,3.83-.05,6.19-.64,12.47-1.26,18.5,0,0-7.96-8.84-7.96-8.84,0,0,12.45,0,12.45,0l-7.88,6.64c3.8-22,8.34-43.93,14.07-65.63l7.73,10.05s-13.92,0-13.92,0c0,0,7.88-6.64,7.88-6.64-1.13,6.18-2.59,12.44-6.29,17.92-2.25,3.53-6.41,6.47-10.6,7.49-9.45,2.47-19.13,2.35-28.68,2.48,0,0-50.07,0-50.07,0h-10.24s2.48-9.94,2.48-9.94,26.85-107.67,26.85-107.67c0,0,1.5-6.02,1.5-6.02,0,0,6.21-.04,6.21-.04,29.84.18,63.49-1.41,93.08,1.74,8.71.77,16.95,5.53,19.49,14.4,1.18,3.78,1.14,7.26.97,11.02-.31,6.09-1.09,11.8-1.96,17.48,0,0-7.9-9.24-7.9-9.24,2.83-.02,4.97.86,7.74,1.92h0Z"/>
  <g>
    <path class="cls-1" d="M1084.74,999.45c9.84-2.99,22.07-5.27,32.21-7.48,0,0-3.82,12.88-3.82,12.88-2.98,20.57-7.28,40.82-11.87,61.04-7.79,33.24-15.26,70.65-22.2,104.14-.43,2.19-1.63,8.2-1.94,10.31,0,0-.37,2.49-.37,2.49,0,.05-.03.16-.03.17,0,.01-.01.03-.02.04-.03.05-.03,0-.06-.03-.89-3.4-4.13-6.71-7.75-7.32-.69-.23-2.79-.07-3.1.19-.07.07.07.09.31.05.48-.06,1.27-.25,2.13-.55,14.71-5.73,28.35-14.61,42.48-22.51,4.78,5.82,11.97,14.59,16.75,20.42,0,0-5.61,5.11-5.61,5.11-10.29,9.33-20.29,18.5-31.13,27.36-2.67,2.22-5.94,4.52-8.93,6.46-13.94,8.87-29.36,17.3-46.32,18.25-19.62,1.3-27.03-13.04-21.29-30.47.91-3.04,3.42-11.61,4.36-14.79,0,0,5.77-19.62,5.77-19.62,0,0,13.82,7.38,13.82,7.38-14.65,17.56-32.23,32.56-51.58,44.63-8.13,5.13-17.01,9.5-26.69,11.53-13.27,3-29.06.44-37.98-11.07-8.06-9.93-11.74-22.75-12.47-35.21-2.4-59.46,43.14-130.72,93.45-160.64,16.05-10.04,35.25-14.51,53.84-15.38,9.22-.52,18.58-.41,27.75.73,0,0-7.77,3.75-7.77,3.75,2.5-4.07,5.25-8.09,8.06-11.87h0ZM1093.96,1012.53c-1.55,3.91-4.14,8-6.35,11.54,0,0-5.08-.61-5.08-.61-8.29-1.04-16.6-1.1-24.94-.64-16.53.83-32.58,4.42-46.59,13.18-35.64,21.79-62.46,58.68-76.98,97.53-7.87,21.8-14.59,51.9-1.29,72.35,10.1,15.62,32.43,6.47,45.31-1.81,17.97-11.2,34.26-25.11,47.81-41.34,0,0,24.67-29.54,24.67-29.54l-10.86,36.92c-1.89,6.41-6.85,23.29-8.68,29.52-.67,2.3-2.07,6.72-2.44,9.01-.32,1.52-.43,3.68.13,4.83.44.74,1.35.75,2.36.96,2.57.27,5.34.02,7.94-.36,9.13-1.52,17.56-5.63,25.76-10.15,4.15-2.34,8.31-4.99,12.24-7.74,11.81-9.06,22.95-19.57,34.1-29.59,0,0-.79,10.98-.79,10.98l-7.81-9.52s11.8.65,11.73.7c-6.14,9.29-13.85,17.44-22.48,24.57-7.28,5.63-14.42,11.56-24.28,12.19-9.53.6-18.28-5.72-20.86-14.82-1.36-4.21-1.41-9.4-1.1-13.54.29-4.29.76-8.53,1.39-12.65,4.07-25.92,10.32-51.48,17.69-76.65,9.11-29.9,20.4-59.02,33.24-87.54,0,0,9.33,10.1,9.33,10.1-4.34.93-8.65,1.6-13.16,2.13h0Z"/>
    <path class="cls-1" d="M1052.28,1047.56c.44,1.52,2.44,3.04,3.57,3.1,0,0-.18-.05-.18-.05,0,0-.37-.08-.37-.08-6.87-1.3-14.12-.81-20.9.63-10.08,2.26-18.78,7.63-26.22,14.43-4.76,4.28-8.56,9.7-13.54,14.34-6.37,5.96-14.28,11.82-18.82,19.63-8.82,16.85-13.71,35.79-14.84,54.74-.52,10.99-.87,29.62,13.85,29.63,8.04-.1,15.54-3.76,22.66-8.86,18.19-12.71,29-32.91,34.59-54.08,6.05-24.01,13.08-49.65,20.19-73.43h0ZM1065.88,1039.13c-6.2,25.57-13.19,53.74-20.29,78.84-4.51,17.04-11.06,33.81-21.86,47.93-8.36,10.67-18.73,19.83-31.05,25.85-13.55,6.42-29.83,7.18-39.04-6.61-9.35-14.27-6.39-41.44-3.47-57.63,1.64-8.68,4.03-17.2,7.01-25.49,1.52-4.14,3.17-8.22,4.3-12.5,3.74-14.51,4.37-27.67,15.58-39.39,18.31-20.51,45.02-23.88,70.59-17.37,3.32.74,6.46,1.77,9.77,2.35,3.08.27,6.41,1.7,8.48,4.02h0Z"/>
  </g>
  <path class="cls-1" d="M1292.87,1010.15c16.36-1.4,33.59-1.8,50.08-1.66-2.05,4.58-13.11,62.69-14.54,69.26-5.69,28.48-12.26,59.96-17.1,88.35-1.01,6.67-2.46,14.04-2.61,20.33,0,.08,0,.2.02.14.03-.03.05-.07.07-.11,0-.05.03-.06.05-.07.02-.04.04-.07.05-.16.08-3.55-3.01-7.67-6.69-9.28-2.37-1.16-5.6-1.62-8.23-1.28-.43.04-.43,0-.24-.21,5.58-5.4,10.99-11.17,16.35-17.19,6.47-7.21,47.09-54.14,54.28-62.38,0,0-9.93,52.24-9.93,52.24,0,.02-3.71,19.51-3.71,19.53,0,0-.2,10.88-.2,10.88-14.05,14.42-28.63,28.71-45.37,40.35-6.06,4.17-12.8,8.13-20.33,10.85-13.25,4.67-26.39,2.35-34.46-10.16-6.47-10.65-4.87-22.84-3.29-34.36,1.06-6.84,2.52-13.47,4.14-20.02l13.79,7.19c-15.27,17.48-33.47,32.02-53.26,43.91-13.72,8.22-29.99,16.07-46.66,14.8-17.9-2.11-23.61-17.6-22.88-33.5.21-11.8,2.9-23.3,5.77-34.62,8.86-35.88,20.43-71.19,27.7-107.31.53-2.95,1.07-5.96,1.17-8.9,0,0,0-.38,0-.38-.02-.46-.09-.79-.08-.75.04.11.09.23.18.39.52.97,1.81,1.81,2.9,1.9.18.02.1,0-.02.01-.11,0-.29.04-.49.08-5.67,1.56-10.93,5.68-15.53,9.52-7.12,5.9-14.36,12.88-21.22,19.33-3.73-2.95-12.41-9.88-16.17-12.86,0,0-7.42-5.91-7.42-5.91,10.19-9.08,20.51-18.4,31.24-26.92,8.6-6.8,17.05-13.29,26.86-18.69,11.02-5.72,27.75-13.85,40.29-8.68,5.86,2.45,10.18,8.1,11.66,14.08,1.69,6.41,1.24,12.57.52,18.63-1.41,10.8-3.66,21.06-6.03,31.55-6.68,29.38-16.13,61.84-22.87,91.16-1.4,6.38-2.96,12.5-3.63,18.78-.27,1.8.82,3.84,2.33,4.74,1.33.18,3.19-.33,5.13-.94,8.38-3.07,16.55-9.42,23.65-15.37,14.99-12.38,27.66-28.05,33.77-46.59.8-2.27,1.48-4.79,2.1-7.11,9.06-34.24,18.91-68.79,28.9-102.59h0ZM1302.63,1022.83c-7.39,31.77-14.93,62.87-23.25,94.23-2.09,8.13-5.1,16.05-9.03,23.46-10.52,19.9-26.81,35.39-45.02,48.19-13.04,8.84-32.36,17.64-42.2-.87-2.66-5.11-2.46-10.95-1.39-16.4,7.86-40.51,21.37-81.59,29.39-122,.95-6.25,7.14-30.6-1.5-31.26-3.87-.1-8.02,1-11.84,2.38-13.79,4.95-26.11,13.88-37.61,23.12-7.98,6.39-15.79,13.15-23.49,20.03l-.36-12.22s10.74,8.54,10.74,8.54c0,0-10.48.45-10.48.45,8.89-8.16,17.64-16.96,28.14-23.41,4.91-2.76,10.21-5.42,16.32-5.1,8.34.63,12.24,8.16,11.74,15.7-.76,11.25-3.86,22.31-6.34,33.08-7.14,28.9-15.77,57.34-22.98,86.11-3.19,13.11-6.85,26.86-4.65,40.32,1.64,9.13,9.12,8.75,16.67,7.38,9.99-2.01,19.01-6.57,27.97-11.97,18.37-11.02,35.4-24.62,49.46-40.72,0,0,21.73-24.83,21.73-24.83-2.94,12.46-9.99,38.3-11.79,50.62-.9,7.55-2.75,16.7,1.06,23.47,3.45,5.44,8.9,5.69,14.73,3.76,6.08-1.94,11.67-5.3,17.44-9.2,15.67-10.94,29.45-24.43,42.87-38.25-.02,0-.17,10.92-.23,10.88,0,0-19.81,1.46-19.81,1.46-.01,0,34.7.88,34.64.91-3.84,3.41-7.71,6.81-11.66,10.2-3.97,3.4-7.95,6.78-12.25,10.21-5.2,4.07-10.9,8.71-17.12,11.5-12.98,6.23-27.97,4.93-37.03-7.16-5.31-7.06-6.48-15.48-5.26-23.39,1.55-8.84,3.91-16.07,6.31-24.17,14.06-44.76,33.2-98.67,48.24-143.47,0,0,7.73,10.08,7.73,10.08-10.12.04-19.72-.66-29.88-1.66h0Z"/>
  <path class="cls-1" d="M1384.92,1067.42c-4.51-3.48-9.4-8.26-12.74-13.03,0,0-4.34-6.02-4.34-6.02,16.88-14.41,34.53-28.78,54.42-39.14,8.73-4.56,19.48-9.36,29.47-5.29,13.77,5.53,17.8,20.81,21.63,33.36,3.6,12.91,6.09,25.74,8.39,38.59,0,0-14.49-3.12-14.49-3.12,6.21-10.82,12.76-21.52,19.97-31.99,10.84-15.8,24.29-32.04,40.53-43.56,12.55-9.18,29.09-17.9,45.79-15.67,33.36,4.92,41.66,47.69,13.25,65.43-7.32,4.22-16.31,6.02-24.04,7.5-2.43.41-5.14.91-7.58,1.26-1.84.29-4.05.52-5.8,1.01-5.97,1.46-10.82,4.94-14.7,9.42-12.62,13.5-21.62,29.29-29.8,46.26-.04.18,3.61-22.47,3.62-22.46,0,0,12.04,70.26,12.04,70.26,3.62,21.53,7.74,44.53,14.73,64.61,3.86,10.73,9.22,21.36,16.84,29.67,0,0,1.06,1.12,1.06,1.12,0,0,1.08,1.07,1.08,1.07,1.67,1.55,3.89,3.85,6.27,4.21.22.05.46.08.7.12.12,0,.15.04.2.08.02.03-.02.14-.2.22-.13.14-.35.23-.45.42-.13.09-.16.27-.09.25,1.37-.57,2.85-3.69,3.58-5.32,6.9-17.53,23.44-28.75,42.57-23.82,17.96,5.11,27.08,24.25,22.72,41.61-5.34,22.02-27.69,36.07-48.51,39.52-28.75,4.9-57.97-4.93-79.19-24.57-40.27-37.87-49.05-103.3-57.33-155.41,0,0-.01-.1-.01-.1l14.29,3.3c-12.19,17.06-25.36,36.27-38.57,52.47-7.11,8.65-14.5,17.3-23.26,24.66-11.11,8.95-24.16,16.02-39.05,16.42-14.12.77-29.77-7.73-33.23-22.29-3.38-13.12,5.34-28.1,18.93-30.47,8.34-1.76,16.36,3.11,21.35,9.07,1.65,1.83,3.68,4.85,5.66,5.99.29.18.48.23.53.25.02,0,.01,0-.02,0-.02,0-.04-.01-.06,0,6.25-.53,15.42-11.65,20.05-16.46,7.03-7.77,13.84-15.67,19.71-24.22,3.82-5.58,25.94-38.33,30.27-44.67,0,0-1.19,6.2-1.19,6.2,0,0-6.67-30.42-6.67-30.42l-3.33-15.21c-1.6-7.01-2.9-13.77-6-19.93-.3-.55-.8-1.19-1.22-1.62-.68-.71-1.1-1.07-1.72-1.23-1.79.31-4.11,1.5-5.99,2.61-7.52,4.27-14.59,9.04-21.16,14.63,0,0-1.37,1.19-1.37,1.19-1.97,1.84-5,3.11-7.56,3.25h0ZM1386.56,1051.5c-1.18-.51-2.88-.44-4.04.24-.19.1-.36.21-.51.33,0,0-.21.17-.21.17,0,0,.1-.08.1-.08,3.62-3.16,7.43-6.18,11.35-8.94,4.4-3.13,9.12-6.07,13.77-8.73,2.82-1.57,5.49-3.04,8.86-4,7.83-2.49,15.73,1.36,20.28,7.64,5.52,7.93,7.3,18.08,9.41,27.03,2.08,9.5,7.82,35.7,9.99,45.56,0,0,.74,3.36.74,3.36-5.78,8.52-26.68,39.38-32.21,47.53-6.36,9.26-13.66,17.78-21.11,26-8.22,8.61-17.8,20.69-30.79,21.66-5.97.57-12.01-3.28-15.59-7.32-2.15-2.24-3.95-5.19-6.38-6.93-2.45-2.08-4.82-1.51-6.99.41-3.46,2.87-4.21,8.33-1.86,12.02,4.27,6.69,12.96,8.24,20.5,6.95,12.17-2.04,23.58-10.2,32.18-19.16,12.11-12.52,22.78-26.87,33.05-41.04,8.35-11.72,20.68-29.07,29.03-40.81,7.94,34.19,15.76,69.11,28.79,101.42,13.26,32.75,37.14,66.64,75.58,66.61,8.64-.13,18.54-1.97,25.19-7.28,2.02-1.48,4.73-4.22,5.65-6.09.45-.88.42-1.33.35-1.52-.04-.09-.12-.18-.15-.27-.06-.04-.13.22-.05.74.08.5.32,1.25.67,1.85.16.3.37.6.5.78.11.15.3.38.62.68.61.57,1.82,1.33,3.19,1.74,1.01.3,1.89.42,2.88.48,1.08.1,3.51-.86,4.3-1.59.44-.33.6-.49.62-.41.02.06-.1.45-.24.91,0,0-.11.41-.11.41,0,0-.03.1-.03.1,0,0-.12.34-.12.34,0,0-.26.73-.26.73-9.23,27.06-33.85,39.36-61.3,30.15-8.88-3.01-16.26-8.41-22.95-14.39-32.85-30.07-43.59-75.71-54.45-116.74-2.28-8.76-19.15-74.43-20.95-81.35,13.71-20.56,28.87-40.92,47.96-57.43,15.08-13.38,31.41-22.39,51.81-23.6,4.62-.33,9.5-.03,14.12-.15,3.39,0,6.6-.39,9.3-.43,0,.02.06.02-.03.06-.1.06-.16.12-.25.19-.54.31-1.04.64-1.56,1.01,0,0-.22.17-.22.17-.05.04-.19.15-.16.13,0,0,0,.03,0,.03.07.17-.06.37-.32.94-.46.82-.95,2.91-.59,3.75.46.56,1.02,1.91,1.84,2.21.33.03.87.28,1.21.22.24-.03.33-.15.17-.3-.25-.33-1.67-.61-3.29-.59-6.75.26-13.06,2.98-19.8,6.3-4.76,2.46-9.61,5.25-14.04,8.38-18.56,13.45-34.75,32.15-49.51,50.23,0,0-11.56,14.31-11.56,14.31l-2.93-17.42c-2.7-13.75-8.55-50.38-17.95-58.59-3.07-2.57-6.95-1.7-10.48-.29-2.54.95-5.23,2.24-7.89,3.63-16.68,8.72-31.36,20.19-45.84,32.38,0,0,1.3-10.79,1.3-10.79,1.49,2.02,1.02,3.85,1.42,6.5h0Z"/>
  <path class="cls-1" d="M1896.65,1023.21c-5.66,1.25-12.12,2.06-18,2.01,0,0-8.87,0-8.87,0,0,0,.91-8.82.91-8.82,2.15-11.74,3.92-23.5,4.78-35.37,1.28-13.96-2.3-28.42-15.45-35.51-5.31-2.88-11.63-3.94-18.13-3.84-32.35-.26-64.13,30.02-61.07,63.11.76,9.85,4.66,18.6,10.98,26.09,6.43,7.85,13.63,15,21.08,21.94,10.2,9.56,20.26,19.21,29.81,29.52,12.63,13.4,24.01,29.38,28.7,47.61,5.95,23.19,1.36,48.27-9.12,69.5-8.77,18.07-22.5,33.67-38.4,45.74-25.37,19.54-56.7,31.61-88.96,33.26-26.4,1.7-53.71-4.37-75.65-19.87-16.65-11.79-31.31-27.41-36.54-48.07-6.36-24.49,3.39-51.99,27.05-63.77,18.06-9.06,41.19-4.56,54.37,10.81,6,6.49,9.41,15.24,11.68,22.85,2.46,8.18,3.33,15.13,6.56,21.46,0,.01-.01-.02-.03-.02.16.2.3.42.49.62,3.35,3.43,8.69,5.46,13.71,5.55,4.5.07,9.08-.21,13.5-1.02,14.41-2.39,27.52-10.9,37.2-21.7,7.06-7.69,11.89-17.6,11.32-28.15-1.02-18.18-16.84-32.93-28.5-46.05-8.93-9.65-20.89-21.82-28.97-32.2-16.05-21-24.43-48.9-19.28-75.15,6.44-32.41,29.07-59.96,56.87-76.5,13.49-8.04,28.83-13.45,44.32-15.44,15.16-2.06,30.33-1.26,45.18,1.77,13.69,2.7,26.88,7.12,40.37,10,0,0,.14.03.14.03,0,0,9.39,2.04,9.39,2.04,0,0-2.86,8.46-2.86,8.46-3.39,10.04-6.31,20.24-8.37,30.58-1.99,10.52-3.42,21.24-4.87,31.93,0,0-1.4,10.79-1.4,10.79-.11.64-.72,5.91-.82,6.46-.43,3.19-1.68,6.66-3.17,9.37h0ZM1886.05,1011.23c-.78-.36-1.45-.44-2.01-.11,0,0,.04-.31.04-.31,0,0,.69-5.44.69-5.44,1.86-14.43,3.77-29.43,6.45-43.77,2.21-11.11,5.32-21.97,8.92-32.63,0,0,6.54,10.5,6.54,10.5-7.2-.37-14.27-1.03-21.32-1.85-11.58-1.49-22.8-2.64-34.36-2.2-16.55.77-33.25,4.99-47.35,13.71-21.1,12.7-39.81,36.67-42.45,60.68-.97,9.88,1.35,19.6,5.87,28.37,2.25,4.25,5.04,8.78,8.35,12.35,13.34,14.28,30.08,28.49,43.66,42.81,8.81,9.02,16.53,19.58,22.26,31.14,13.22,26.74,10.6,59.16-5.51,84.06-17.05,26.28-43.88,45.97-75.04,52.39-19.3,3.99-40.22,3.86-58.21-5.14-16.21-7.75-28.21-20.61-34.33-37.17-3.43-8.13-4.96-17.5-7.61-24.75-.27-.73-.56-1.17-.16-.45.05.08.16.28.24.41.3.47.78,1.13,1.14,1.56,2.85,3.2,8.64,4.83,13.08,2.45,1.59-.86,2.12-1.16,2.79-2.46.29-.6.25-.88.22-.33.04,3.06,1.75,5.27,3.94,7.97,10.95,12.39,26.87,19.39,43.88,21.07,25.77,2.72,52.07-2.46,75.38-14.18,15.72-7.75,29.7-19.27,38.97-34.26,6.34-9.97,10.42-21.48,11.34-33.28,1.22-15.41-4.82-30.61-13.25-43.33-9.33-14.11-20.63-26.9-32.25-39.24-9.76-10.45-19.48-20.34-26.63-33.13-6.81-13.27-7.4-29.02-3.02-43.07,6.66-20.29,24.25-37.65,44.08-45.2,21.57-7.7,47.78-6.65,60.28,15.39,5.82,10.17,6.61,21.53,6.57,32.78.03,6.78-.41,24.41-.62,31.49,0,0-7.96-8.83-7.96-8.83,2.74-.02,4.73.92,7.39,2.01h0Z"/>
  <g>
    <path class="cls-1" d="M2074.49,999.45c9.85-2.99,22.06-5.27,32.21-7.48,0,0-3.82,12.88-3.82,12.88-14.04,46.53-30.62,101.38-39.45,148.8-1.49,7.45-2.95,14.89-4,22.35-.31,2.68-.82,5.53-.58,8.08.05.28.08.14-.14-.19-.19-.46-1.32-1.28-1.77-1.31-.1-.01-.12-.03-.13-.02-.02,0,.09,0,.05,0-.19,0-.04.01.21-.06,4.01-1.16,8.34-4.03,12.85-6.87,8.17-5.33,15.8-11.57,22.91-18.41l6.24-6.02,5.5,6.7c2.83,3.49,9.82,11.94,12.63,15.39-12.14,11.01-23.98,22.04-36.73,32.47-2.03,1.66-4.43,3.47-6.7,4.98-9.79,6.59-19.98,12.27-31.26,16.26-9.35,3.12-22.3,5.82-31.55.82-5.98-3.12-9.19-10.49-8.95-16.76.02-5.43,1.9-10.92,3.38-15.99,0,0,2.88-9.81,2.88-9.81.01-.04,5.77-19.62,5.78-19.65,0,0,13.82,7.38,13.82,7.38-12.88,19.02-29.84,35.78-48.65,49.27-15.76,11.55-36.52,19.95-56.3,13.73-16.06-4.9-26.63-20.64-31.19-35.95-12.15-41.96,7.61-93.37,30.35-128.55,18.5-27.93,42.54-52.92,72.89-68.24,18.05-9.05,38.54-11.97,57.97-12.48,0,0,3.69-.05,3.69-.05,9.16-.15,14.57,7.1,17.51,16.64,0,0,.06.22.06.22,0,0-7.77,3.75-7.77,3.75,2.5-4.07,5.25-8.09,8.06-11.87h0ZM2083.71,1012.53c-1.09,2.57-2.25,4.9-3.66,7.18l-7.77,3.75s-.1.2-.1.2c-2.7,5.09-4.91,8.13-6.96,10.36-2.05,2.21-3.9,3.46-5.71,4.02-1.49.48-4.03.31-5.63.35-16.15.24-31.74,2.68-45.3,10.96-39.77,23.36-75.4,75.64-82.12,121.35-1.42,11.53-1.16,24.46,5.86,33.27,1.46,1.7,5.34,2.67,8.17,2.67,4.79.14,9.2-.9,14.07-2.61,7.4-2.62,14.4-6.8,21.19-10.74,22.16-12.49,43.79-34.16,62.14-52.05-3.45,11.71-10.9,37.06-14.29,48.58,0,0-2.89,9.84-2.89,9.84-.67,2.31-2.06,6.71-2.44,9-.31,1.51-.43,3.67.14,4.81.13.22.16.26.42.42,1.29.64,3.96.76,5.65.61,4.36-.22,8.54-1.13,12.73-2.6,9.65-3.4,19.02-8.62,27.6-14.41,1.95-1.3,3.71-2.64,5.62-4.18,10.3-8.42,20.44-17.71,30.38-26.72,0,0-.79,10.98-.79,10.98,0,0-7.81-9.52-7.81-9.52l11.74.68c-8.7,8.39-18.32,16.08-28.71,22.48-4.52,2.72-8.97,5.46-14.51,6.87-7.27,1.94-15.27-1.85-17.21-9.43-1.4-5.42-.5-9.74.07-14.83,1.1-7.87,2.62-15.62,4.16-23.34,8.87-47.76,25.69-103.34,39.79-150.18,0,0,9.33,10.1,9.33,10.1-4.34.93-8.65,1.6-13.16,2.13h0Z"/>
    <path class="cls-1" d="M2042.02,1047.56c.43,1.51,2.14,3.02,3.65,3.2,0,0-.09-.02-.09-.02l-.18-.05c-.66-.18-3.3-.82-4.03-.98-20.91-5.33-43.25-1.43-57.96,15.28-15.5,18.04-25.51,42.32-30.16,65.37-2.15,11.57-3.03,23.97-1.6,35.57,1.19,8.81,4.7,17.4,15.11,14.63,10.23-2.45,18.05-10.31,24.69-18.26,9.5-12.06,14.02-27.28,16.57-42.34,1.5-9.09,2.56-18.41,5.14-27.18,1.7-6.06,3.89-11.93,6.53-17.98,1.32-3.02,2.75-6.1,4.25-9.24.15-.38.65-.91,1.54-1.66,4.08-3.24,9.72-6.76,13.74-10.43,1.21-1.04,5.85-5.96,2.8-5.91h0ZM2055.62,1039.13c-2.66,2.77-3.48,5.85,1.08,5.56,2.06.04,11.18-2.37,10.51.86-2.66,20.5-6.81,41.25-12.96,61.12-4.44,14.15-9.15,27.99-16.57,40.87-11.79,21.24-30.5,39.22-53.43,48.19-12.99,4.98-30.04,5.89-39.7-6.07-8.38-9.93-8.36-23.65-7.64-35.84,1.35-21.93,7.69-43.29,17.14-62.98,5.7-11.92,12.03-23.25,20.88-33.44,17.46-20.24,43.21-26.19,68.95-22.72.92.14,3.81.45,4.72.58,2.54.33,5.39,1.97,7.04,3.87h0Z"/>
  </g>
  <path class="cls-2" d="M2287.5,1016.49h34.76l-22.95,85.33c-13.51,49.55-20.26,77.75-20.26,84.59,0,3.09.73,5.46,2.2,7.08,1.46,1.63,3.09,2.44,4.88,2.44,2.77,0,6.02-1.22,9.77-3.66,5.37-3.74,15.54-13.18,30.52-28.32l8.06,9.03c-32.71,34.02-56.8,51.03-72.27,51.03-5.21,0-9.64-2-13.31-5.98s-5.49-9.64-5.49-16.97c0-8.46,1.76-19.78,5.29-33.94-14.48,16.6-32.37,31.17-53.67,43.7-14.15,8.3-26.43,12.45-36.84,12.45-5.69,0-10.17-1.88-13.42-5.62-3.25-3.75-4.88-9.7-4.88-17.84,0-6.36.73-13.2,2.2-20.53,2.11-10.27,7.48-30.88,16.11-61.85,10.9-39.28,16.36-62.83,16.36-70.65,0-4.56-1.63-6.84-4.88-6.84-2.93,0-6.92,1.51-11.96,4.52-5.05,3.01-13.67,10.3-25.88,21.85l-10.74-8.54c21.81-19.53,38.45-32.35,49.93-38.45s20.71-9.16,27.71-9.16c3.91,0,7.08,1.43,9.52,4.28,2.44,2.85,3.66,7.29,3.66,13.32,0,11.25-5.86,38.87-17.58,82.88-10.42,39.6-15.62,62.18-15.62,67.72,0,3.42,1.09,6.35,3.29,8.8,2.19,2.45,4.59,3.67,7.2,3.67,9.1,0,22.03-7.53,38.78-22.58,16.75-15.05,27.73-32.18,32.93-51.39l26.59-100.34Z"/>
  <path class="cls-2" d="M2465.08,1033.33c-12.54,20.02-21.2,37.68-26,52.98-4.8,15.3-7.2,30.52-7.2,45.65,0,14,3.09,35.89,9.28,65.67,35.97-27.34,61.44-52.94,76.42-76.78,14.97-23.84,22.46-44.39,22.46-61.65,0-5.04-1.87-11.39-5.62-19.04-4.07-8.14-6.1-14.16-6.1-18.07,0-4.23,1.46-7.93,4.39-11.11s6.43-4.76,10.5-4.76c5.37,0,9.68,2.32,12.94,6.96,3.25,4.64,4.88,12.49,4.88,23.56,0,34.67-12.29,68.44-36.87,101.32-30.11,40.37-68.28,71.45-114.5,93.26-1.14-7.65-3.42-19.86-6.84-36.62-6.68-33.69-10.01-57.13-10.01-70.31,0-17.41,4.07-34.3,12.21-50.66,8.14-16.36,20.18-30.56,36.13-42.6-28.65.49-49.16,3.66-61.52,9.52-8.79,4.23-13.18,9.2-13.18,14.89,0,2.28,1.14,6.1,3.42,11.47,1.46,3.75,2.2,6.92,2.2,9.52s-1.1,4.92-3.3,6.96c-2.2,2.04-4.92,3.05-8.18,3.05-4.23,0-7.81-1.79-10.74-5.37-2.93-3.58-4.39-8.38-4.39-14.4,0-9.6,3.17-18.27,9.52-26,6.35-7.73,17.33-13.79,32.96-18.19s36.29-6.43,62.01-6.1c10.41-4.55,17.01-6.84,19.78-6.84,2.6,0,4.96,1.06,7.08,3.17,2.11,2.12,3.17,4.39,3.17,6.84,0,5.05-4.97,9.61-14.89,13.67Z"/>
  <g>
    <path class="cls-1" d="M2734.4,999.45c9.84-3,22.07-5.26,32.21-7.48-2.12,7.22-18.83,63.49-21.41,72.22-10.2,34.25-18.2,69.27-24.69,104.43-.76,4.64-1.64,9.5-1.81,14.1,0,.57-.01,1.01.11,1.5,0,.05-.01-.11-.18-.33-.16-.26-.49-.64-.87-.89-.48-.3-.76-.4-1.04-.45-.02,0,.09,0,.05,0-.19,0-.04.01.21-.06.25-.06.6-.16,1-.3,12.33-5.44,24.72-15.45,34.76-24.98,0,0,6.24-6.02,6.24-6.02,0,0,5.5,6.7,5.5,6.7,1.76,2.23,8.85,10.73,10.55,12.86-2.48,5.43-5.58,12.31-8.73,17.23-7.86,12.58-16.76,24.53-28.6,33.77-15.13,11.82-33.87,21.45-53.81,21.15-21.78.24-37.29-16.96-31.34-38.86,1.19-4.35,2.82-7.68,4.71-11.41,4.85-9.43,10.05-18.61,16.67-27.02-.01-.13,13.83,7.38,13.84,7.35-14.65,17.56-32.23,32.56-51.58,44.63-8.13,5.13-17.01,9.5-26.69,11.53-13.27,3-29.06.44-37.98-11.07-8.06-9.93-11.74-22.75-12.47-35.21-2.39-59.47,43.14-130.72,93.45-160.64,16.05-10.04,35.25-14.51,53.84-15.38,9.22-.52,18.58-.41,27.75.73,0,0-7.77,3.75-7.77,3.75,2.5-4.07,5.25-8.09,8.06-11.87h0ZM2743.62,1012.53c-1.55,3.91-4.14,8-6.35,11.54,0,0-5.08-.61-5.08-.61-19.74-2.11-42.4-.86-60.7,6.89-50.75,23.04-98.53,95.46-96.46,151.54.82,11.03,3.74,22.21,12.13,29.17,2.35,1.67,5.19,2.68,8.51,3.06,15.12,1.63,30.4-8.55,42.62-17.11,18.77-12.83,34.69-30.55,48.84-48.21,0,.04,2.18,21.32,2.19,21.36.73,7.22.56,14.3.19,21.46-.24,4.36-.65,8.74-1.14,13.06-.26,1.94-.46,4.18-.3,5.77.04.41.13.72.24.78.05.05.11-.02.16-.14.06.01.11.02.16-.03.37-.77.04-1.78-.36-2.9-.66-1.66-2.25-3.54-3.74-4.49-1.45-.95-2.18-1.14-2.26-1.27-.01-.2.52-.18.83-.23,8.94-1.19,16.71-5.06,25.26-8.9,3.9-1.8,7.99-3.96,11.92-5.88,2.43-1.13,9.63-5.52,12.14-6.93,9.1-5.2,18.33-10.23,28.3-13.86,0,0-.79,10.98-.79,10.98,0,0-7.81-9.51-7.81-9.52,0,0,11.74.68,11.74.68-8.7,8.39-18.32,16.08-28.71,22.48-3.88,2.34-7.13,4.33-11.8,6.06-7.98,3.23-17.52.29-19.91-8.62-1.4-5.42-.5-9.74.07-14.83,1.1-7.87,2.62-15.62,4.16-23.34,8.86-47.76,25.69-103.33,39.79-150.18,0,0,9.33,10.1,9.33,10.1-4.34.93-8.65,1.6-13.16,2.13h0Z"/>
    <path class="cls-1" d="M2701.94,1047.56c.46,1.49,2.17,2.96,3.67,3.1,0,0-.09-.03-.09-.03,0,0-.18-.06-.18-.06-1.32-.41-2.67-.84-4-1.19-16.87-5-35.68-3.46-49.95,7.42-9.42,7.2-15.78,17.49-21.06,28.2-3.48,7.31-6.49,15.01-8.77,22.71-1.3,3.81-1.65,7.95-.98,12.25,1.22,7.94,5.77,16.23,4.96,24.09-.25,4.45-2.28,9.25-4.68,13.36-1.54,2.64-3.34,5.33-4.67,8.05-1.57,3.17-2.56,6.82-1.7,10.04,1.4,4.38,5.33,7.55,10,7.55,11.6.41,23.2-7.47,32.01-15.35,5.91-5.23,10.75-11.6,14.82-18.4,6.15-10.45,10.23-22.11,13.11-33.88,3.73-14.66,13.6-52.78,17.51-67.87h0ZM2715.53,1039.13c-4.71,17.34-16.84,61.9-21.45,78.57-3.37,12.61-7.59,25.19-14.03,36.61-9.05,16.45-23.5,31.46-40.82,39.29-15.56,6.47-31.01,4.64-39.53-11.32-4.37-8.48-9.16-16.55-13-25.26-4.65-10.43-3.75-22.3,3.18-31.63,2.93-4.19,6.63-7.98,9.73-11.74,2.93-3.53,5.42-7.46,7.22-11.63,9.76-19.55,20.67-40.04,38.45-53.54,16.85-12.51,38.01-15.42,58.44-13.48.79.08,3.93.28,4.75.36,2.53.28,5.39,1.9,7.06,3.76h0Z"/>
  </g>
  <path class="cls-2" d="M2946.83,1008.43l19.62-4.41c-11.84,38.09-22.71,76.27-32.6,114.52-7.14,27.34-12.09,50.13-14.84,68.36-1.46,9.12-2.27,20.67-2.43,34.67-.33,23.44-2.93,42.32-7.82,56.64-6.84,20.02-19.58,36.13-38.22,48.34-18.65,12.21-40.75,18.31-66.31,18.31-21.98,0-39.28-5.17-51.9-15.5-12.62-10.34-18.93-22.18-18.93-35.52s5.06-25.47,15.17-36.87c7.51-8.63,23.17-19.04,46.99-31.25,12.07-6.35,23.42-12.86,34.02-19.53-12.1,6.19-21.51,9.28-28.21,9.28-6.05,0-11.41-2.81-16.07-8.42-4.66-5.62-6.99-13.06-6.99-22.34,0-29.95,8.91-59.69,26.74-89.23s39.28-51.72,64.36-66.53c15.47-9.11,34.84-13.67,58.13-13.67,4.56,0,10.18.16,16.85.49l2.43-7.32ZM2886.46,1177.62c-11.09,9.93-32.45,25.8-64.09,47.61-27.89,18.88-45.01,32.47-51.36,40.77-6.36,8.46-9.54,17.41-9.54,26.86s4.12,17.62,12.35,25.02c8.24,7.4,18.23,11.11,29.97,11.11,11.09,0,21.85-2.73,32.29-8.18,10.44-5.46,19.53-13.35,27.28-23.68,7.74-10.34,13.08-22.01,16.02-35.03,2.94-13.02,4.49-30.27,4.65-51.76.16-4.72.97-15.62,2.43-32.71ZM2919.57,1044.57c-7.81-1.46-14.72-2.2-20.73-2.2-15.45,0-28.7,4.07-39.76,12.21-11.05,8.14-20.48,21.81-28.29,41.02-10.89,27.18-16.34,50.05-16.34,68.6,0,7.65,2.15,14.08,6.46,19.29,4.31,5.21,9.15,7.81,14.51,7.81,6.5,0,14.55-3.13,24.15-9.4,9.59-6.26,17.44-14.12,23.53-23.56,6.1-9.44,12.32-25.71,18.66-48.83l17.8-64.94Z"/>
  <path class="cls-2" d="M3110.35,1154.18l8.06,10.74c-39.88,37.93-74.06,56.88-102.54,56.88-11.56,0-20.39-3.91-26.49-11.72s-9.16-20.34-9.16-37.6c0-34.83,10.58-69.5,31.74-104,23.76-39.22,52.16-58.84,85.21-58.84,11.55,0,20.39,2.89,26.49,8.67,6.1,5.78,9.16,13.71,9.16,23.8s-3.66,21-10.99,31.25-20.43,20.92-39.31,31.98c-9.44,5.37-29.62,15.06-60.55,29.05-1.46,8.79-2.2,17.17-2.2,25.15,0,11.56,1.83,19.62,5.49,24.17,3.66,4.56,8.99,6.84,15.99,6.84s14-1.87,21.97-5.62c10.74-5.04,26.45-15.3,47.12-30.76ZM3024.9,1118.78c26.2-11.72,45.9-24.33,59.08-37.84,8.95-9.44,13.43-18.8,13.43-28.08,0-7-1.83-12.57-5.49-16.72s-8.42-6.23-14.28-6.23-11.88,2.28-17.58,6.84c-7.65,6.02-14.08,15.14-19.29,27.34-7.49,17.91-12.78,36.13-15.87,54.69Z"/>
  <path class="cls-1" d="M3259.52,998.71c14.69.04,30.71,2.89,42.4,12.91,14.06,11.06,18.87,32.02,4.45,44.95-9.1,8.53-24.89,9.38-34.11.65-6.66-6.28-10.47-14.92-17.39-20.42-8.36-7.41-19.77-2.62-24.55,6.06-5.03,9.71-.98,22.6,5.94,30.51,7.15,8.39,16.73,15.05,25.95,21.22,10.99,7.61,21.64,16.66,28.91,28.18,14.52,21.91,13.08,51.27.18,73.73-6.32,10.92-14.38,19.7-24.17,27.31-22.87,18.02-53.71,23.06-81.65,19.33-11.88-1.56-23.62-4.68-34.42-11.32-14.53-9.01-25.67-24.55-27.62-41.94-1.5-11.89.79-24.75,9.28-33.89,11.97-13.83,34.31-15.95,48.19-4,6.71,5.56,11.29,14.14,11.28,23.02.04,1.47-.63,7.68-.74,9.15,0,0-.26,2.78-.26,2.78-.11,1.23-.14,1.12-.18,1.35-.07.34-.16.43-.09.8.17.73.81,1.36,1.47,2.04,2.41,2.46,6.44,2.89,9.88,3.03,8.33.3,17.49-1.13,23.86-6.48,7.08-6.29,11.09-16.23,7.54-25.45-2.86-7.6-8.33-13.96-13.29-20.52-5.7-7.27-12.1-14.04-17.66-21.51-15.53-20.05-25.6-46.53-17.02-71.88,3.25-10.14,9.36-19.29,16.69-26.81,14.33-15.34,36.52-23.16,57.13-22.8h0ZM3259.52,1021.58c-8.08,0-15.9,1.06-23.13,3.45-17.73,5.92-34.01,21.48-36.29,40.55-2.51,18.45,7.61,36.15,19.54,49.8,7.75,8.59,15.87,16.77,23.31,25.81,7.31,8.58,12.9,19.02,12.81,30.87-.16,18.28-11.99,35.5-28.61,42.47-15.09,6.41-36.4,9.01-50.64-.49-7.51-4.84-13.45-12.98-14.69-22.06-.61-3.7-.33-6.36-.45-9.56,0,0-.04-6.03-.04-6.03,0-.35-.02-.21-.03-.22,0,0-.03.04-.04.07-.09.24-.07.66-.02.9.02.19.03.29-.06.29-.08,0-.3-.12-.41-.12-.26-.03-.17.19-.2.3-.02.06-.08.11-.23.17-.14.05-.44.13-.56.21-.27.17-.1.28,0,.36.05.05.08.1.06.2-.01.09-.13.3-.15.42-.05.26.11.29.17.44.08.14.12.48.23,1.16l.11.77c.66,6.56,5.58,11.77,11.5,14.56,5.22,2.32,11.67,3.26,17.92,3.53,10.61.4,21.76-.57,31.71-4.02,11.58-3.93,22.03-12.16,28.16-22.65,5.82-10.05,4.53-21.62,2.05-32.74-2.72-11.32-7.31-22.46-13.48-32.51-4.92-8.42-10.06-16.26-15.22-24.64-2.77-4.46-5.27-9.28-6.82-14.37-3.17-10.65-3.5-22.4,2.16-32.46,9.33-16.15,29.86-22.85,45.47-11.26,4.55,3.2,8.22,6.92,11.47,10.75,2.64,3.08,5.85,7.19,9.02,9.31,3.57,1.47,8.13-.14,9.97-3.51,1.04-1.75.75-3.42.31-5.24-1.13-3.66-4.5-6.46-7.7-8.63-7.93-4.95-17.74-5.85-27.2-5.89h0Z"/>
</svg>